<mxfile host="Electron" agent="Mozilla/5.0 (Windows NT 10.0; Win64; x64) AppleWebKit/537.36 (KHTML, like Gecko) draw.io/26.0.9 Chrome/128.0.6613.186 Electron/32.2.5 Safari/537.36" version="26.0.9">
  <diagram name="Página-1" id="IAS2n_sIF7jFCsGxXnuV">
    <mxGraphModel dx="765" dy="463" grid="1" gridSize="10" guides="1" tooltips="1" connect="1" arrows="1" fold="1" page="1" pageScale="1" pageWidth="1169" pageHeight="1654" background="none" math="0" shadow="1">
      <root>
        <mxCell id="0" />
        <mxCell id="1" parent="0" />
        <mxCell id="5pMe2-5SteMIqpU9e42x-7" style="edgeStyle=orthogonalEdgeStyle;rounded=0;orthogonalLoop=1;jettySize=auto;html=1;exitX=0.5;exitY=1;exitDx=0;exitDy=0;entryX=0.5;entryY=0;entryDx=0;entryDy=0;labelBackgroundColor=none;fontColor=default;" edge="1" parent="1" source="5pMe2-5SteMIqpU9e42x-1" target="5pMe2-5SteMIqpU9e42x-2">
          <mxGeometry relative="1" as="geometry" />
        </mxCell>
        <mxCell id="5pMe2-5SteMIqpU9e42x-1" value="inicio" style="rounded=1;whiteSpace=wrap;html=1;labelBackgroundColor=none;" vertex="1" parent="1">
          <mxGeometry x="560" y="20" width="100" height="40" as="geometry" />
        </mxCell>
        <mxCell id="5pMe2-5SteMIqpU9e42x-2" value="moeda" style="shape=parallelogram;perimeter=parallelogramPerimeter;whiteSpace=wrap;html=1;fixedSize=1;labelBackgroundColor=none;" vertex="1" parent="1">
          <mxGeometry x="560" y="80" width="100" height="50" as="geometry" />
        </mxCell>
        <mxCell id="5pMe2-5SteMIqpU9e42x-18" style="edgeStyle=orthogonalEdgeStyle;rounded=0;orthogonalLoop=1;jettySize=auto;html=1;exitX=0.5;exitY=1;exitDx=0;exitDy=0;entryX=0.5;entryY=0;entryDx=0;entryDy=0;labelBackgroundColor=none;fontColor=default;" edge="1" parent="1" source="5pMe2-5SteMIqpU9e42x-4" target="5pMe2-5SteMIqpU9e42x-10">
          <mxGeometry relative="1" as="geometry" />
        </mxCell>
        <mxCell id="5pMe2-5SteMIqpU9e42x-4" value="moeda = 1" style="rhombus;whiteSpace=wrap;html=1;labelBackgroundColor=none;" vertex="1" parent="1">
          <mxGeometry x="560" y="220" width="80" height="80" as="geometry" />
        </mxCell>
        <mxCell id="5pMe2-5SteMIqpU9e42x-5" value="m1 = dolar = 1,87&lt;div&gt;m2 = libra = 3,05&lt;/div&gt;&lt;div&gt;m3 = peso = 1,40&lt;/div&gt;" style="text;html=1;align=center;verticalAlign=middle;resizable=0;points=[];autosize=1;strokeColor=none;fillColor=none;labelBackgroundColor=none;" vertex="1" parent="1">
          <mxGeometry x="210" y="10" width="120" height="60" as="geometry" />
        </mxCell>
        <mxCell id="5pMe2-5SteMIqpU9e42x-15" style="edgeStyle=orthogonalEdgeStyle;rounded=0;orthogonalLoop=1;jettySize=auto;html=1;exitX=0.5;exitY=1;exitDx=0;exitDy=0;entryX=0.5;entryY=0;entryDx=0;entryDy=0;labelBackgroundColor=none;fontColor=default;" edge="1" parent="1" source="5pMe2-5SteMIqpU9e42x-6" target="5pMe2-5SteMIqpU9e42x-4">
          <mxGeometry relative="1" as="geometry" />
        </mxCell>
        <mxCell id="5pMe2-5SteMIqpU9e42x-6" value="valor" style="shape=parallelogram;perimeter=parallelogramPerimeter;whiteSpace=wrap;html=1;fixedSize=1;labelBackgroundColor=none;" vertex="1" parent="1">
          <mxGeometry x="550" y="150" width="100" height="50" as="geometry" />
        </mxCell>
        <mxCell id="5pMe2-5SteMIqpU9e42x-8" style="edgeStyle=orthogonalEdgeStyle;rounded=0;orthogonalLoop=1;jettySize=auto;html=1;exitX=0.5;exitY=1;exitDx=0;exitDy=0;entryX=0.565;entryY=0.018;entryDx=0;entryDy=0;entryPerimeter=0;labelBackgroundColor=none;fontColor=default;" edge="1" parent="1" source="5pMe2-5SteMIqpU9e42x-2" target="5pMe2-5SteMIqpU9e42x-6">
          <mxGeometry relative="1" as="geometry" />
        </mxCell>
        <mxCell id="5pMe2-5SteMIqpU9e42x-22" style="edgeStyle=orthogonalEdgeStyle;rounded=0;orthogonalLoop=1;jettySize=auto;html=1;exitX=1;exitY=0.25;exitDx=0;exitDy=0;entryX=0.5;entryY=0;entryDx=0;entryDy=0;labelBackgroundColor=none;fontColor=default;" edge="1" parent="1" source="5pMe2-5SteMIqpU9e42x-9" target="5pMe2-5SteMIqpU9e42x-14">
          <mxGeometry relative="1" as="geometry" />
        </mxCell>
        <mxCell id="5pMe2-5SteMIqpU9e42x-9" value="&quot;conversão: &quot;&lt;div&gt;+ valor / 1,87&lt;/div&gt;" style="shape=document;whiteSpace=wrap;html=1;boundedLbl=1;labelBackgroundColor=none;" vertex="1" parent="1">
          <mxGeometry x="680" y="230" width="100" height="70" as="geometry" />
        </mxCell>
        <mxCell id="5pMe2-5SteMIqpU9e42x-19" style="edgeStyle=orthogonalEdgeStyle;rounded=0;orthogonalLoop=1;jettySize=auto;html=1;exitX=0.5;exitY=1;exitDx=0;exitDy=0;entryX=0.5;entryY=0;entryDx=0;entryDy=0;labelBackgroundColor=none;fontColor=default;" edge="1" parent="1" source="5pMe2-5SteMIqpU9e42x-10" target="5pMe2-5SteMIqpU9e42x-11">
          <mxGeometry relative="1" as="geometry" />
        </mxCell>
        <mxCell id="5pMe2-5SteMIqpU9e42x-10" value="moeda = 2" style="rhombus;whiteSpace=wrap;html=1;labelBackgroundColor=none;" vertex="1" parent="1">
          <mxGeometry x="560" y="330" width="80" height="80" as="geometry" />
        </mxCell>
        <mxCell id="5pMe2-5SteMIqpU9e42x-11" value="moeda = 1" style="rhombus;whiteSpace=wrap;html=1;labelBackgroundColor=none;" vertex="1" parent="1">
          <mxGeometry x="560" y="450" width="80" height="80" as="geometry" />
        </mxCell>
        <mxCell id="5pMe2-5SteMIqpU9e42x-21" style="edgeStyle=orthogonalEdgeStyle;rounded=0;orthogonalLoop=1;jettySize=auto;html=1;exitX=1;exitY=0.5;exitDx=0;exitDy=0;entryX=0;entryY=0.5;entryDx=0;entryDy=0;labelBackgroundColor=none;fontColor=default;" edge="1" parent="1" source="5pMe2-5SteMIqpU9e42x-12" target="5pMe2-5SteMIqpU9e42x-14">
          <mxGeometry relative="1" as="geometry">
            <mxPoint x="860" y="374.7777777777777" as="targetPoint" />
            <Array as="points">
              <mxPoint x="780" y="370" />
            </Array>
          </mxGeometry>
        </mxCell>
        <mxCell id="5pMe2-5SteMIqpU9e42x-12" value="&quot;conversão: &quot;&lt;div&gt;+ valor / 3,05&lt;/div&gt;" style="shape=document;whiteSpace=wrap;html=1;boundedLbl=1;labelBackgroundColor=none;" vertex="1" parent="1">
          <mxGeometry x="680" y="340" width="100" height="70" as="geometry" />
        </mxCell>
        <mxCell id="5pMe2-5SteMIqpU9e42x-20" style="edgeStyle=orthogonalEdgeStyle;rounded=0;orthogonalLoop=1;jettySize=auto;html=1;exitX=1;exitY=0.5;exitDx=0;exitDy=0;entryX=0.5;entryY=1;entryDx=0;entryDy=0;labelBackgroundColor=none;fontColor=default;" edge="1" parent="1" source="5pMe2-5SteMIqpU9e42x-13" target="5pMe2-5SteMIqpU9e42x-14">
          <mxGeometry relative="1" as="geometry" />
        </mxCell>
        <mxCell id="5pMe2-5SteMIqpU9e42x-13" value="&quot;conversão: &quot;&lt;div&gt;+ valor / 1,40&lt;/div&gt;" style="shape=document;whiteSpace=wrap;html=1;boundedLbl=1;labelBackgroundColor=none;" vertex="1" parent="1">
          <mxGeometry x="680" y="460" width="100" height="70" as="geometry" />
        </mxCell>
        <mxCell id="5pMe2-5SteMIqpU9e42x-14" value="fim" style="rounded=1;whiteSpace=wrap;html=1;labelBackgroundColor=none;" vertex="1" parent="1">
          <mxGeometry x="910" y="350" width="100" height="40" as="geometry" />
        </mxCell>
        <mxCell id="5pMe2-5SteMIqpU9e42x-25" style="edgeStyle=orthogonalEdgeStyle;rounded=0;orthogonalLoop=1;jettySize=auto;html=1;exitX=1;exitY=0;exitDx=0;exitDy=0;entryX=0.011;entryY=0.132;entryDx=0;entryDy=0;entryPerimeter=0;labelBackgroundColor=none;fontColor=default;" edge="1" parent="1" source="5pMe2-5SteMIqpU9e42x-11" target="5pMe2-5SteMIqpU9e42x-13">
          <mxGeometry relative="1" as="geometry" />
        </mxCell>
        <mxCell id="5pMe2-5SteMIqpU9e42x-26" style="edgeStyle=orthogonalEdgeStyle;rounded=0;orthogonalLoop=1;jettySize=auto;html=1;exitX=1;exitY=0;exitDx=0;exitDy=0;entryX=-0.011;entryY=0.148;entryDx=0;entryDy=0;entryPerimeter=0;labelBackgroundColor=none;fontColor=default;" edge="1" parent="1" source="5pMe2-5SteMIqpU9e42x-10" target="5pMe2-5SteMIqpU9e42x-12">
          <mxGeometry relative="1" as="geometry" />
        </mxCell>
        <mxCell id="5pMe2-5SteMIqpU9e42x-27" style="edgeStyle=orthogonalEdgeStyle;rounded=0;orthogonalLoop=1;jettySize=auto;html=1;exitX=1;exitY=0;exitDx=0;exitDy=0;entryX=-0.033;entryY=0.148;entryDx=0;entryDy=0;entryPerimeter=0;labelBackgroundColor=none;fontColor=default;" edge="1" parent="1" source="5pMe2-5SteMIqpU9e42x-4" target="5pMe2-5SteMIqpU9e42x-9">
          <mxGeometry relative="1" as="geometry" />
        </mxCell>
      </root>
    </mxGraphModel>
  </diagram>
</mxfile>
